# xmcd
#
# Track frame offsets: 
#        150
#        12251
#        24952
#        37964
#        50920
#        64388
#        76881
#        88051
#        100727
#        113766
#        124851
#        136439
#        147499
#        160175
#
# Disc length: 2286 seconds
#
# Revision: 0
# Processed by: cddbd v1.5.2PL0 Copyright (c) Steve Scherf et al.
# Submitted via: ExactAudioCopyFreeDBPlugin 1.0
#
DISCID=bb08ec0e
DTITLE=CLINT EASTWOOD - COWBOY FAVORITES
DYEAR=2010
DGENRE=
TTITLE0=BOUQET OF ROSES
TTITLE1=ALONG THE SANTE FE TRAIL
TTITLE2=THE LAST ROUND UP
TTITLE3=SIERRA NEVADA
TTITLE4=MEXICLI ROSE
TTITLE5=SEARCHING FOR SOMEWHERE
TTITLE6=I'LL LOVE YOU MORE
TTITLE7=TUMBLING ON THE TRAIL
TTITLE8=TWILIGHT ON THE TRAIL
TTITLE9=SAN ANTONIO ROSE
TTITLE10=DON'T FENCE ME IN
TTITLE11=ARE YOU SATISFIED
TTITLE12=ROWDY
TTITLE13=COWBOY WEDDING SONG
EXTD=
EXTT0=
EXTT1=
EXTT2=
EXTT3=
EXTT4=
EXTT5=
EXTT6=
EXTT7=
EXTT8=
EXTT9=
EXTT10=
EXTT11=
EXTT12=
EXTT13=
PLAYORDER=
